<mxfile host="app.diagrams.net" modified="2022-12-14T08:06:49.257Z" agent="5.0 (Macintosh; Intel Mac OS X 10_15_3) AppleWebKit/537.36 (KHTML, like Gecko) Chrome/107.0.0.0 Safari/537.36" etag="-g-1_UQnBE8BR6cfqOan" version="20.6.2" type="github">
  <diagram id="kgpKYQtTHZ0yAKxKKP6v" name="Page-1">
    <mxGraphModel dx="786" dy="491" grid="1" gridSize="10" guides="1" tooltips="1" connect="1" arrows="1" fold="1" page="1" pageScale="1" pageWidth="850" pageHeight="1100" math="0" shadow="0">
      <root>
        <mxCell id="0" />
        <mxCell id="1" parent="0" />
        <mxCell id="0oZg8qkL9w9ilyilMxtD-24" value="应用层&lt;br&gt;&lt;br&gt;&lt;br&gt;&lt;br&gt;&lt;br&gt;" style="rounded=0;whiteSpace=wrap;html=1;dashed=1;" vertex="1" parent="1">
          <mxGeometry x="190" y="20" width="430" height="80" as="geometry" />
        </mxCell>
        <mxCell id="0oZg8qkL9w9ilyilMxtD-13" value="通用排版服务&lt;br&gt;&lt;br&gt;&lt;br&gt;&lt;br&gt;&lt;br&gt;&lt;br&gt;&lt;br&gt;&lt;br&gt;&lt;br&gt;&lt;br&gt;&lt;br&gt;&lt;br&gt;&lt;br&gt;" style="rounded=0;whiteSpace=wrap;html=1;dashed=1;" vertex="1" parent="1">
          <mxGeometry x="190" y="150" width="430" height="200" as="geometry" />
        </mxCell>
        <mxCell id="0oZg8qkL9w9ilyilMxtD-4" value="文档数据生成服务&lt;br&gt;&lt;br&gt;&lt;br&gt;&lt;br&gt;&lt;br&gt;&lt;br&gt;&lt;br&gt;" style="rounded=0;whiteSpace=wrap;html=1;" vertex="1" parent="1">
          <mxGeometry x="200" y="180" width="200" height="120" as="geometry" />
        </mxCell>
        <mxCell id="0oZg8qkL9w9ilyilMxtD-5" value="文档渲染引擎&lt;br&gt;&lt;br&gt;&lt;br&gt;&lt;br&gt;&lt;br&gt;&lt;br&gt;&lt;br&gt;" style="rounded=0;whiteSpace=wrap;html=1;" vertex="1" parent="1">
          <mxGeometry x="410" y="180" width="200" height="120" as="geometry" />
        </mxCell>
        <mxCell id="0oZg8qkL9w9ilyilMxtD-6" value="网页" style="rounded=0;whiteSpace=wrap;html=1;" vertex="1" parent="1">
          <mxGeometry x="420" y="250" width="70" height="40" as="geometry" />
        </mxCell>
        <mxCell id="0oZg8qkL9w9ilyilMxtD-7" value="word" style="rounded=0;whiteSpace=wrap;html=1;" vertex="1" parent="1">
          <mxGeometry x="530" y="250" width="70" height="40" as="geometry" />
        </mxCell>
        <mxCell id="0oZg8qkL9w9ilyilMxtD-9" value="题目组件" style="rounded=0;whiteSpace=wrap;html=1;" vertex="1" parent="1">
          <mxGeometry x="200" y="50" width="70" height="40" as="geometry" />
        </mxCell>
        <mxCell id="0oZg8qkL9w9ilyilMxtD-10" value="答题卡" style="rounded=0;whiteSpace=wrap;html=1;" vertex="1" parent="1">
          <mxGeometry x="320" y="50" width="70" height="40" as="geometry" />
        </mxCell>
        <mxCell id="0oZg8qkL9w9ilyilMxtD-11" value="下载试卷" style="rounded=0;whiteSpace=wrap;html=1;" vertex="1" parent="1">
          <mxGeometry x="420" y="50" width="70" height="40" as="geometry" />
        </mxCell>
        <mxCell id="0oZg8qkL9w9ilyilMxtD-12" value="APP错题打印" style="rounded=0;whiteSpace=wrap;html=1;" vertex="1" parent="1">
          <mxGeometry x="520" y="50" width="90" height="40" as="geometry" />
        </mxCell>
        <mxCell id="0oZg8qkL9w9ilyilMxtD-16" style="edgeStyle=orthogonalEdgeStyle;rounded=0;orthogonalLoop=1;jettySize=auto;html=1;exitX=0.5;exitY=0;exitDx=0;exitDy=0;entryX=0.5;entryY=0;entryDx=0;entryDy=0;dashed=1;" edge="1" parent="1" source="0oZg8qkL9w9ilyilMxtD-14" target="0oZg8qkL9w9ilyilMxtD-15">
          <mxGeometry relative="1" as="geometry">
            <Array as="points">
              <mxPoint x="245" y="240" />
              <mxPoint x="355" y="240" />
            </Array>
          </mxGeometry>
        </mxCell>
        <mxCell id="0oZg8qkL9w9ilyilMxtD-31" value="数据转换" style="edgeLabel;html=1;align=center;verticalAlign=middle;resizable=0;points=[];" vertex="1" connectable="0" parent="0oZg8qkL9w9ilyilMxtD-16">
          <mxGeometry x="0.3596" y="1" relative="1" as="geometry">
            <mxPoint x="-22" y="1" as="offset" />
          </mxGeometry>
        </mxCell>
        <mxCell id="0oZg8qkL9w9ilyilMxtD-17" style="edgeStyle=orthogonalEdgeStyle;rounded=0;orthogonalLoop=1;jettySize=auto;html=1;exitX=0.5;exitY=1;exitDx=0;exitDy=0;" edge="1" parent="1" source="0oZg8qkL9w9ilyilMxtD-14">
          <mxGeometry relative="1" as="geometry">
            <mxPoint x="455" y="100" as="targetPoint" />
            <Array as="points">
              <mxPoint x="245" y="340" />
              <mxPoint x="455" y="340" />
            </Array>
          </mxGeometry>
        </mxCell>
        <mxCell id="0oZg8qkL9w9ilyilMxtD-21" value="3.渲染" style="edgeLabel;html=1;align=center;verticalAlign=middle;resizable=0;points=[];" vertex="1" connectable="0" parent="0oZg8qkL9w9ilyilMxtD-17">
          <mxGeometry x="0.6179" y="1" relative="1" as="geometry">
            <mxPoint x="-4" y="29" as="offset" />
          </mxGeometry>
        </mxCell>
        <mxCell id="0oZg8qkL9w9ilyilMxtD-14" value="网页&lt;br&gt;数据" style="rounded=0;whiteSpace=wrap;html=1;" vertex="1" parent="1">
          <mxGeometry x="210" y="274" width="70" height="40" as="geometry" />
        </mxCell>
        <mxCell id="0oZg8qkL9w9ilyilMxtD-22" style="edgeStyle=orthogonalEdgeStyle;rounded=0;orthogonalLoop=1;jettySize=auto;html=1;exitX=0.5;exitY=1;exitDx=0;exitDy=0;" edge="1" parent="1" source="0oZg8qkL9w9ilyilMxtD-15">
          <mxGeometry relative="1" as="geometry">
            <mxPoint x="473" y="100" as="targetPoint" />
            <Array as="points">
              <mxPoint x="355" y="334" />
              <mxPoint x="570" y="334" />
              <mxPoint x="570" y="170" />
              <mxPoint x="473" y="170" />
            </Array>
          </mxGeometry>
        </mxCell>
        <mxCell id="0oZg8qkL9w9ilyilMxtD-15" value="word&lt;br&gt;数据" style="rounded=0;whiteSpace=wrap;html=1;" vertex="1" parent="1">
          <mxGeometry x="320" y="274" width="70" height="40" as="geometry" />
        </mxCell>
        <mxCell id="0oZg8qkL9w9ilyilMxtD-25" style="edgeStyle=orthogonalEdgeStyle;rounded=0;orthogonalLoop=1;jettySize=auto;html=1;exitX=0.25;exitY=1;exitDx=0;exitDy=0;entryX=0.25;entryY=0;entryDx=0;entryDy=0;" edge="1" parent="1" source="0oZg8qkL9w9ilyilMxtD-24" target="0oZg8qkL9w9ilyilMxtD-4">
          <mxGeometry relative="1" as="geometry" />
        </mxCell>
        <mxCell id="0oZg8qkL9w9ilyilMxtD-26" value="1.输入题目数据" style="edgeLabel;html=1;align=center;verticalAlign=middle;resizable=0;points=[];" vertex="1" connectable="0" parent="0oZg8qkL9w9ilyilMxtD-25">
          <mxGeometry x="-0.2392" y="1" relative="1" as="geometry">
            <mxPoint x="1" y="-21" as="offset" />
          </mxGeometry>
        </mxCell>
        <mxCell id="0oZg8qkL9w9ilyilMxtD-27" style="edgeStyle=orthogonalEdgeStyle;rounded=0;orthogonalLoop=1;jettySize=auto;html=1;exitX=0.25;exitY=0;exitDx=0;exitDy=0;entryX=0.25;entryY=0;entryDx=0;entryDy=0;" edge="1" parent="1" source="0oZg8qkL9w9ilyilMxtD-4" target="0oZg8qkL9w9ilyilMxtD-14">
          <mxGeometry relative="1" as="geometry">
            <Array as="points">
              <mxPoint x="250" y="200" />
              <mxPoint x="228" y="200" />
              <mxPoint x="228" y="250" />
            </Array>
          </mxGeometry>
        </mxCell>
        <mxCell id="0oZg8qkL9w9ilyilMxtD-28" value="2.数据转换" style="edgeLabel;html=1;align=center;verticalAlign=middle;resizable=0;points=[];" vertex="1" connectable="0" parent="0oZg8qkL9w9ilyilMxtD-27">
          <mxGeometry x="0.2155" relative="1" as="geometry">
            <mxPoint x="3" y="-9" as="offset" />
          </mxGeometry>
        </mxCell>
      </root>
    </mxGraphModel>
  </diagram>
</mxfile>
